<mxfile host="app.diagrams.net" modified="2024-05-08T19:02:19.062Z" agent="Mozilla/5.0 (Windows NT 10.0; Win64; x64) AppleWebKit/537.36 (KHTML, like Gecko) Chrome/124.0.0.0 Safari/537.36 Edg/124.0.0.0" etag="B_TPL4FINnNif1jCMh8O" version="24.3.1" type="device">
  <diagram name="Página-1" id="Z7ZKE1o8DuFduaXW-8_f">
    <mxGraphModel dx="956" dy="541" grid="0" gridSize="10" guides="1" tooltips="1" connect="1" arrows="1" fold="1" page="1" pageScale="1" pageWidth="827" pageHeight="1169" math="0" shadow="0">
      <root>
        <mxCell id="0" />
        <mxCell id="1" parent="0" />
        <mxCell id="UXIU2j_Yv46bUBNotC_1-1" value="Tabela Usuario" style="swimlane;fontStyle=0;childLayout=stackLayout;horizontal=1;startSize=26;fillColor=none;horizontalStack=0;resizeParent=1;resizeParentMax=0;resizeLast=0;collapsible=1;marginBottom=0;whiteSpace=wrap;html=1;" parent="1" vertex="1">
          <mxGeometry x="36" y="42" width="177" height="130" as="geometry" />
        </mxCell>
        <mxCell id="UXIU2j_Yv46bUBNotC_1-2" value="nome: CharField" style="text;strokeColor=none;fillColor=none;align=left;verticalAlign=top;spacingLeft=4;spacingRight=4;overflow=hidden;rotatable=0;points=[[0,0.5],[1,0.5]];portConstraint=eastwest;whiteSpace=wrap;html=1;" parent="UXIU2j_Yv46bUBNotC_1-1" vertex="1">
          <mxGeometry y="26" width="177" height="26" as="geometry" />
        </mxCell>
        <mxCell id="UXIU2j_Yv46bUBNotC_1-3" value="email: EmailField" style="text;strokeColor=none;fillColor=none;align=left;verticalAlign=top;spacingLeft=4;spacingRight=4;overflow=hidden;rotatable=0;points=[[0,0.5],[1,0.5]];portConstraint=eastwest;whiteSpace=wrap;html=1;" parent="UXIU2j_Yv46bUBNotC_1-1" vertex="1">
          <mxGeometry y="52" width="177" height="26" as="geometry" />
        </mxCell>
        <mxCell id="UXIU2j_Yv46bUBNotC_1-4" value="senha: CharField" style="text;strokeColor=none;fillColor=none;align=left;verticalAlign=top;spacingLeft=4;spacingRight=4;overflow=hidden;rotatable=0;points=[[0,0.5],[1,0.5]];portConstraint=eastwest;whiteSpace=wrap;html=1;" parent="UXIU2j_Yv46bUBNotC_1-1" vertex="1">
          <mxGeometry y="78" width="177" height="26" as="geometry" />
        </mxCell>
        <mxCell id="Xn1qAM96rIzWH-Y58ay3-26" value="plano: ForeignKey" style="text;strokeColor=none;fillColor=none;align=left;verticalAlign=top;spacingLeft=4;spacingRight=4;overflow=hidden;rotatable=0;points=[[0,0.5],[1,0.5]];portConstraint=eastwest;whiteSpace=wrap;html=1;" vertex="1" parent="UXIU2j_Yv46bUBNotC_1-1">
          <mxGeometry y="104" width="177" height="26" as="geometry" />
        </mxCell>
        <mxCell id="UXIU2j_Yv46bUBNotC_1-7" value="Dados Pessoais&amp;nbsp;" style="swimlane;fontStyle=0;childLayout=stackLayout;horizontal=1;startSize=26;fillColor=none;horizontalStack=0;resizeParent=1;resizeParentMax=0;resizeLast=0;collapsible=1;marginBottom=0;whiteSpace=wrap;html=1;" parent="1" vertex="1">
          <mxGeometry x="333" y="39" width="176" height="156" as="geometry" />
        </mxCell>
        <mxCell id="UXIU2j_Yv46bUBNotC_1-8" value="usuario: OneToOneField&amp;nbsp;" style="text;strokeColor=none;fillColor=none;align=left;verticalAlign=top;spacingLeft=4;spacingRight=4;overflow=hidden;rotatable=0;points=[[0,0.5],[1,0.5]];portConstraint=eastwest;whiteSpace=wrap;html=1;" parent="UXIU2j_Yv46bUBNotC_1-7" vertex="1">
          <mxGeometry y="26" width="176" height="26" as="geometry" />
        </mxCell>
        <mxCell id="UXIU2j_Yv46bUBNotC_1-9" value="email: EmailField" style="text;strokeColor=none;fillColor=none;align=left;verticalAlign=top;spacingLeft=4;spacingRight=4;overflow=hidden;rotatable=0;points=[[0,0.5],[1,0.5]];portConstraint=eastwest;whiteSpace=wrap;html=1;" parent="UXIU2j_Yv46bUBNotC_1-7" vertex="1">
          <mxGeometry y="52" width="176" height="26" as="geometry" />
        </mxCell>
        <mxCell id="UXIU2j_Yv46bUBNotC_1-10" value="cpf: PositiveIntegerField" style="text;strokeColor=none;fillColor=none;align=left;verticalAlign=top;spacingLeft=4;spacingRight=4;overflow=hidden;rotatable=0;points=[[0,0.5],[1,0.5]];portConstraint=eastwest;whiteSpace=wrap;html=1;" parent="UXIU2j_Yv46bUBNotC_1-7" vertex="1">
          <mxGeometry y="78" width="176" height="26" as="geometry" />
        </mxCell>
        <mxCell id="UXIU2j_Yv46bUBNotC_1-11" value="endereço: CharField" style="text;strokeColor=none;fillColor=none;align=left;verticalAlign=top;spacingLeft=4;spacingRight=4;overflow=hidden;rotatable=0;points=[[0,0.5],[1,0.5]];portConstraint=eastwest;whiteSpace=wrap;html=1;" parent="UXIU2j_Yv46bUBNotC_1-7" vertex="1">
          <mxGeometry y="104" width="176" height="26" as="geometry" />
        </mxCell>
        <mxCell id="Xn1qAM96rIzWH-Y58ay3-5" value="data_nascimento: DateField" style="text;strokeColor=none;fillColor=none;align=left;verticalAlign=top;spacingLeft=4;spacingRight=4;overflow=hidden;rotatable=0;points=[[0,0.5],[1,0.5]];portConstraint=eastwest;whiteSpace=wrap;html=1;" vertex="1" parent="UXIU2j_Yv46bUBNotC_1-7">
          <mxGeometry y="130" width="176" height="26" as="geometry" />
        </mxCell>
        <mxCell id="Xn1qAM96rIzWH-Y58ay3-1" value="Tabela Planos&amp;nbsp;" style="swimlane;fontStyle=0;childLayout=stackLayout;horizontal=1;startSize=26;fillColor=none;horizontalStack=0;resizeParent=1;resizeParentMax=0;resizeLast=0;collapsible=1;marginBottom=0;whiteSpace=wrap;html=1;" vertex="1" parent="1">
          <mxGeometry x="635" y="39" width="180" height="104" as="geometry" />
        </mxCell>
        <mxCell id="Xn1qAM96rIzWH-Y58ay3-2" value="nome: CharField" style="text;strokeColor=none;fillColor=none;align=left;verticalAlign=top;spacingLeft=4;spacingRight=4;overflow=hidden;rotatable=0;points=[[0,0.5],[1,0.5]];portConstraint=eastwest;whiteSpace=wrap;html=1;" vertex="1" parent="Xn1qAM96rIzWH-Y58ay3-1">
          <mxGeometry y="26" width="180" height="26" as="geometry" />
        </mxCell>
        <mxCell id="Xn1qAM96rIzWH-Y58ay3-3" value="preco: FloatField" style="text;strokeColor=none;fillColor=none;align=left;verticalAlign=top;spacingLeft=4;spacingRight=4;overflow=hidden;rotatable=0;points=[[0,0.5],[1,0.5]];portConstraint=eastwest;whiteSpace=wrap;html=1;" vertex="1" parent="Xn1qAM96rIzWH-Y58ay3-1">
          <mxGeometry y="52" width="180" height="26" as="geometry" />
        </mxCell>
        <mxCell id="Xn1qAM96rIzWH-Y58ay3-4" value="descricao_plano: TextField" style="text;strokeColor=none;fillColor=none;align=left;verticalAlign=top;spacingLeft=4;spacingRight=4;overflow=hidden;rotatable=0;points=[[0,0.5],[1,0.5]];portConstraint=eastwest;whiteSpace=wrap;html=1;" vertex="1" parent="Xn1qAM96rIzWH-Y58ay3-1">
          <mxGeometry y="78" width="180" height="26" as="geometry" />
        </mxCell>
        <mxCell id="Xn1qAM96rIzWH-Y58ay3-7" value="Tabela Filmes" style="swimlane;fontStyle=0;childLayout=stackLayout;horizontal=1;startSize=26;fillColor=none;horizontalStack=0;resizeParent=1;resizeParentMax=0;resizeLast=0;collapsible=1;marginBottom=0;whiteSpace=wrap;html=1;" vertex="1" parent="1">
          <mxGeometry x="35" y="249" width="214" height="156" as="geometry" />
        </mxCell>
        <mxCell id="Xn1qAM96rIzWH-Y58ay3-24" value="usuario: ForeignKey" style="text;strokeColor=none;fillColor=none;align=left;verticalAlign=top;spacingLeft=4;spacingRight=4;overflow=hidden;rotatable=0;points=[[0,0.5],[1,0.5]];portConstraint=eastwest;whiteSpace=wrap;html=1;" vertex="1" parent="Xn1qAM96rIzWH-Y58ay3-7">
          <mxGeometry y="26" width="214" height="26" as="geometry" />
        </mxCell>
        <mxCell id="Xn1qAM96rIzWH-Y58ay3-8" value="genero: CharField&amp;nbsp;" style="text;strokeColor=none;fillColor=none;align=left;verticalAlign=top;spacingLeft=4;spacingRight=4;overflow=hidden;rotatable=0;points=[[0,0.5],[1,0.5]];portConstraint=eastwest;whiteSpace=wrap;html=1;" vertex="1" parent="Xn1qAM96rIzWH-Y58ay3-7">
          <mxGeometry y="52" width="214" height="26" as="geometry" />
        </mxCell>
        <mxCell id="Xn1qAM96rIzWH-Y58ay3-9" value="ano_lancamento: DateField" style="text;strokeColor=none;fillColor=none;align=left;verticalAlign=top;spacingLeft=4;spacingRight=4;overflow=hidden;rotatable=0;points=[[0,0.5],[1,0.5]];portConstraint=eastwest;whiteSpace=wrap;html=1;" vertex="1" parent="Xn1qAM96rIzWH-Y58ay3-7">
          <mxGeometry y="78" width="214" height="26" as="geometry" />
        </mxCell>
        <mxCell id="Xn1qAM96rIzWH-Y58ay3-10" value="idade_permetida: PositiveIntergeField" style="text;strokeColor=none;fillColor=none;align=left;verticalAlign=top;spacingLeft=4;spacingRight=4;overflow=hidden;rotatable=0;points=[[0,0.5],[1,0.5]];portConstraint=eastwest;whiteSpace=wrap;html=1;" vertex="1" parent="Xn1qAM96rIzWH-Y58ay3-7">
          <mxGeometry y="104" width="214" height="26" as="geometry" />
        </mxCell>
        <mxCell id="Xn1qAM96rIzWH-Y58ay3-11" value="descricao_filme: TextField" style="text;strokeColor=none;fillColor=none;align=left;verticalAlign=top;spacingLeft=4;spacingRight=4;overflow=hidden;rotatable=0;points=[[0,0.5],[1,0.5]];portConstraint=eastwest;whiteSpace=wrap;html=1;" vertex="1" parent="Xn1qAM96rIzWH-Y58ay3-7">
          <mxGeometry y="130" width="214" height="26" as="geometry" />
        </mxCell>
        <mxCell id="Xn1qAM96rIzWH-Y58ay3-12" value="Tabela Genero" style="swimlane;fontStyle=0;childLayout=stackLayout;horizontal=1;startSize=26;fillColor=none;horizontalStack=0;resizeParent=1;resizeParentMax=0;resizeLast=0;collapsible=1;marginBottom=0;whiteSpace=wrap;html=1;" vertex="1" parent="1">
          <mxGeometry x="333" y="249" width="181" height="52" as="geometry" />
        </mxCell>
        <mxCell id="Xn1qAM96rIzWH-Y58ay3-13" value="genero: ForeignKey&lt;div&gt;&lt;br&gt;&lt;/div&gt;" style="text;strokeColor=none;fillColor=none;align=left;verticalAlign=top;spacingLeft=4;spacingRight=4;overflow=hidden;rotatable=0;points=[[0,0.5],[1,0.5]];portConstraint=eastwest;whiteSpace=wrap;html=1;" vertex="1" parent="Xn1qAM96rIzWH-Y58ay3-12">
          <mxGeometry y="26" width="181" height="26" as="geometry" />
        </mxCell>
        <mxCell id="Xn1qAM96rIzWH-Y58ay3-20" style="edgeStyle=orthogonalEdgeStyle;rounded=0;orthogonalLoop=1;jettySize=auto;html=1;exitX=0;exitY=0.5;exitDx=0;exitDy=0;entryX=1.007;entryY=0.12;entryDx=0;entryDy=0;entryPerimeter=0;" edge="1" parent="1" source="UXIU2j_Yv46bUBNotC_1-8" target="UXIU2j_Yv46bUBNotC_1-1">
          <mxGeometry relative="1" as="geometry" />
        </mxCell>
        <mxCell id="Xn1qAM96rIzWH-Y58ay3-21" style="edgeStyle=orthogonalEdgeStyle;rounded=0;orthogonalLoop=1;jettySize=auto;html=1;exitX=0;exitY=0.5;exitDx=0;exitDy=0;entryX=1.004;entryY=0.101;entryDx=0;entryDy=0;entryPerimeter=0;" edge="1" parent="1" source="Xn1qAM96rIzWH-Y58ay3-13" target="Xn1qAM96rIzWH-Y58ay3-7">
          <mxGeometry relative="1" as="geometry" />
        </mxCell>
        <mxCell id="Xn1qAM96rIzWH-Y58ay3-25" style="edgeStyle=orthogonalEdgeStyle;rounded=0;orthogonalLoop=1;jettySize=auto;html=1;exitX=0;exitY=0.5;exitDx=0;exitDy=0;entryX=-0.005;entryY=0.104;entryDx=0;entryDy=0;entryPerimeter=0;" edge="1" parent="1" source="Xn1qAM96rIzWH-Y58ay3-24" target="UXIU2j_Yv46bUBNotC_1-1">
          <mxGeometry relative="1" as="geometry" />
        </mxCell>
        <mxCell id="Xn1qAM96rIzWH-Y58ay3-27" style="edgeStyle=orthogonalEdgeStyle;rounded=0;orthogonalLoop=1;jettySize=auto;html=1;exitX=1;exitY=0.5;exitDx=0;exitDy=0;entryX=0;entryY=0.106;entryDx=0;entryDy=0;entryPerimeter=0;" edge="1" parent="1" source="Xn1qAM96rIzWH-Y58ay3-26" target="Xn1qAM96rIzWH-Y58ay3-1">
          <mxGeometry relative="1" as="geometry">
            <Array as="points">
              <mxPoint x="213" y="153" />
              <mxPoint x="299" y="153" />
              <mxPoint x="299" y="25" />
              <mxPoint x="635" y="25" />
            </Array>
          </mxGeometry>
        </mxCell>
      </root>
    </mxGraphModel>
  </diagram>
</mxfile>
